<svg width="31" height="31" viewBox="0 0 31 31" fill="none" xmlns="http://www.w3.org/2000/svg">
<path d="M29.8651 19.9914L21.5448 21.117C21.3352 21.1454 21.1356 21.2243 20.9632 21.347C20.7908 21.4697 20.6509 21.6324 20.5554 21.8212L16.7657 29.3133C16.2775 30.2784 14.8946 30.2648 14.4255 29.2903L10.7839 21.725C10.6921 21.5344 10.5554 21.3689 10.3855 21.2429C10.2155 21.1168 10.0175 21.034 9.80847 21.0015L1.51192 19.7126C0.443216 19.5465 0.0287267 18.2271 0.810688 17.4798L6.88033 11.6786C7.03327 11.5325 7.14838 11.3513 7.21573 11.1507C7.28307 10.9501 7.30064 10.7362 7.26692 10.5273L5.92905 2.23851C5.7567 1.17074 6.88351 0.368947 7.83582 0.881646L15.2287 4.86153C15.415 4.96181 15.6229 5.01529 15.8345 5.01738C16.046 5.01947 16.2549 4.97009 16.4431 4.87351L23.9129 1.03973C24.8751 0.54593 25.9859 1.36976 25.7926 2.43387L24.292 10.6947C24.2542 10.9029 24.2675 11.1171 24.3309 11.319C24.3943 11.5208 24.5059 11.7042 24.6559 11.8534L30.6103 17.7727C31.3772 18.5354 30.9369 19.8465 29.8651 19.9914Z" fill="url(#paint0_radial_1_36)"/>
<path d="M29.7981 19.4959L29.7981 19.4959L21.4778 20.6216L21.4778 20.6216C21.1878 20.6608 20.9117 20.77 20.6733 20.9396C20.4349 21.1093 20.2413 21.3343 20.1092 21.5954L20.1092 21.5955L16.3195 29.0876C16.3195 29.0876 16.3195 29.0876 16.3195 29.0876C16.0184 29.6829 15.1654 29.6745 14.876 29.0734L11.2344 21.5081L10.8074 21.7137L11.2344 21.5081C11.1075 21.2445 10.9184 21.0156 10.6833 20.8413C10.4483 20.667 10.1744 20.5524 9.88526 20.5075L9.88523 20.5074L1.58868 19.2185C0.929453 19.1161 0.673812 18.3022 1.15615 17.8413L7.2258 12.0401C7.43735 11.8379 7.59656 11.5873 7.68972 11.3099C7.78287 11.0325 7.80717 10.7365 7.76053 10.4477L6.42266 2.15884C6.31635 1.50022 7.01137 1.00564 7.5988 1.3219L7.82034 0.910409L7.59882 1.3219L14.9917 5.30179L14.9917 5.3018C15.2494 5.44049 15.5369 5.51447 15.8295 5.51735C16.1221 5.52024 16.411 5.45195 16.6714 5.31837L16.6714 5.31834L24.1411 1.48457C24.7347 1.17996 25.4198 1.68818 25.3006 2.34449L25.3006 2.3445L23.8 10.6054L23.8 10.6054C23.7477 10.8933 23.7662 11.1896 23.8539 11.4688C23.9416 11.748 24.0959 12.0017 24.3034 12.208L24.3034 12.208L30.2577 18.1273C30.2577 18.1273 30.2578 18.1273 30.2578 18.1273C30.7309 18.598 30.4591 19.4066 29.7981 19.4959Z" stroke="black" stroke-opacity="0.7"/>
<defs>
<radialGradient id="paint0_radial_1_36" cx="0" cy="0" r="1" gradientUnits="userSpaceOnUse" gradientTransform="translate(16.5429 12.9003) rotate(-143) scale(15.2956 14.6439)">
<stop stop-color="#F3FF6F"/>
<stop offset="1" stop-color="#C1AE4B"/>
</radialGradient>
</defs>
</svg>
