<?xml version="1.0" encoding="UTF-8"?>
<svg id="Warstwa_2" data-name="Warstwa 2" xmlns="http://www.w3.org/2000/svg" xmlns:xlink="http://www.w3.org/1999/xlink" viewBox="0 0 2504.7 892.16">
  <defs>
    <style>
      .cls-1 {
        fill: url(#Gradient_bez_nazwy_4);
      }

      .cls-2 {
        fill: #9b8579;
      }

      .cls-3 {
        fill: #726658;
      }

      .cls-4 {
        fill: #d1d3d4;
      }

      .cls-5 {
        fill: #e6e7e8;
      }
    </style>
    <linearGradient id="Gradient_bez_nazwy_4" data-name="Gradient bez nazwy 4" x1="1253.32" y1="893" x2="1253.32" y2="754.39" gradientUnits="userSpaceOnUse">
      <stop offset="0" stop-color="#fff" stop-opacity="0"/>
      <stop offset="1" stop-color="#58595b"/>
    </linearGradient>
  </defs>
  <g id="Layer_1" data-name="Layer 1">
    <g>
      <polygon class="cls-1" points="2504.7 892.16 1.94 892.16 42.38 742.56 2462.32 742.56 2504.7 892.16"/>
      <g>
        <g>
          <polygon class="cls-5" points="647.36 776.49 0 892.16 230.82 77.33 756.47 0 647.36 776.49"/>
          <polygon class="cls-5" points="1857.34 776.49 1252.35 892.16 1252.35 77.33 1748.22 0 1857.34 776.49"/>
          <polygon class="cls-4" points="1252.35 892.16 647.36 776.49 756.47 0 1252.35 77.33 1252.35 892.16"/>
          <polygon class="cls-4" points="2504.7 892.16 1857.34 776.49 1748.22 0 2273.88 77.33 2504.7 892.16"/>
        </g>
        <g>
          <polygon class="cls-3" points="837.03 137.81 810.27 137.81 812.21 121.77 838.85 121.77 837.03 137.81"/>
          <polygon class="cls-3" points="871.19 137.81 844.4 137.81 846.19 121.77 872.86 121.77 871.19 137.81"/>
          <polygon class="cls-3" points="905.33 137.81 878.54 137.81 880.17 121.77 906.84 121.77 905.33 137.81"/>
          <polygon class="cls-3" points="939.46 137.81 912.71 137.81 914.2 121.77 940.82 121.77 939.46 137.81"/>
          <polygon class="cls-3" points="973.62 137.81 946.84 137.81 948.18 121.77 974.84 121.77 973.62 137.81"/>
          <polygon class="cls-3" points="1007.76 137.81 980.97 137.81 982.16 121.77 1008.83 121.77 1007.76 137.81"/>
          <polygon class="cls-3" points="1041.91 137.81 1015.12 137.81 1016.16 121.77 1042.84 121.77 1041.91 137.81"/>
          <polygon class="cls-3" points="1076.05 137.81 1049.27 137.81 1050.16 121.77 1076.82 121.77 1076.05 137.81"/>
          <polygon class="cls-2" points="1454.66 137.81 1427.89 137.81 1427.12 121.77 1453.78 121.77 1454.66 137.81"/>
          <polygon class="cls-2" points="1488.81 137.81 1462.03 137.81 1461.11 121.77 1487.77 121.77 1488.81 137.81"/>
          <polygon class="cls-2" points="1626.9 137.81 1600.12 137.81 1598.6 121.77 1625.26 121.77 1626.9 137.81"/>
          <polygon class="cls-3" points="834.76 157.86 807.86 157.86 809.81 141.63 836.6 141.63 834.76 157.86"/>
          <polygon class="cls-3" points="869.1 157.86 842.17 157.86 843.98 141.63 870.79 141.63 869.1 157.86"/>
          <polygon class="cls-3" points="937.74 157.86 910.85 157.86 912.36 141.63 939.13 141.63 937.74 157.86"/>
          <polygon class="cls-3" points="972.09 157.86 945.17 157.86 946.52 141.63 973.33 141.63 972.09 157.86"/>
          <polygon class="cls-3" points="1006.42 157.86 979.49 157.86 980.69 141.63 1007.5 141.63 1006.42 157.86"/>
          <polygon class="cls-3" points="1040.76 157.86 1013.82 157.86 1014.87 141.63 1041.7 141.63 1040.76 157.86"/>
          <polygon class="cls-3" points="1075.08 157.86 1048.16 157.86 1049.06 141.63 1075.86 141.63 1075.08 157.86"/>
          <polygon class="cls-3" points="1110.93 157.86 1084.01 157.86 1084.75 141.63 1111.56 141.63 1110.93 157.86"/>
          <polygon class="cls-2" points="1282.6 157.86 1255.68 157.86 1255.66 141.63 1282.46 141.63 1282.6 157.86"/>
          <polygon class="cls-2" points="1316.93 157.86 1290 157.86 1289.83 141.63 1316.64 141.63 1316.93 157.86"/>
          <polygon class="cls-2" points="1663.28 157.86 1636.34 157.86 1634.65 141.63 1661.47 141.63 1663.28 157.86"/>
          <polygon class="cls-2" points="731.02 157.86 704.11 157.86 706.52 141.63 733.32 141.63 731.02 157.86"/>
          <polygon class="cls-3" points="799.69 157.86 772.76 157.86 774.87 141.63 801.69 141.63 799.69 157.86"/>
          <polygon class="cls-3" points="832.46 178.14 805.41 178.14 807.39 161.73 834.32 161.73 832.46 178.14"/>
          <polygon class="cls-3" points="936.01 178.14 908.97 178.14 910.49 161.73 937.41 161.73 936.01 178.14"/>
          <polygon class="cls-3" points="970.55 178.14 943.48 178.14 944.85 161.73 971.8 161.73 970.55 178.14"/>
          <polygon class="cls-3" points="1005.07 178.14 977.99 178.14 979.2 161.73 1006.16 161.73 1005.07 178.14"/>
          <polygon class="cls-3" points="1039.6 178.14 1012.51 178.14 1013.57 161.73 1040.54 161.73 1039.6 178.14"/>
          <polygon class="cls-3" points="1074.11 178.14 1047.04 178.14 1047.94 161.73 1074.9 161.73 1074.11 178.14"/>
          <polygon class="cls-3" points="1110.16 178.14 1083.09 178.14 1083.84 161.73 1110.79 161.73 1110.16 178.14"/>
          <polygon class="cls-2" points="1317.28 178.14 1290.2 178.14 1290.04 161.73 1316.99 161.73 1317.28 178.14"/>
          <polygon class="cls-2" points="1491.41 178.14 1464.33 178.14 1463.4 161.73 1490.35 161.73 1491.41 178.14"/>
          <polygon class="cls-2" points="1631.02 178.14 1603.95 178.14 1602.39 161.73 1629.35 161.73 1631.02 178.14"/>
          <polygon class="cls-2" points="1665.54 178.14 1638.45 178.14 1636.75 161.73 1663.71 161.73 1665.54 178.14"/>
          <polygon class="cls-2" points="1700.07 178.14 1672.96 178.14 1671.1 161.73 1698.09 161.73 1700.07 178.14"/>
          <polygon class="cls-3" points="1839.65 178.14 1812.59 178.14 1810.11 161.73 1837.05 161.73 1839.65 178.14"/>
          <polygon class="cls-2" points="693.63 178.14 666.56 178.14 669.15 161.73 696.1 161.73 693.63 178.14"/>
          <polygon class="cls-2" points="728.15 178.14 701.09 178.14 703.53 161.73 730.47 161.73 728.15 178.14"/>
          <polygon class="cls-3" points="762.66 178.14 735.61 178.14 737.9 161.73 764.83 161.73 762.66 178.14"/>
          <polygon class="cls-3" points="797.2 178.14 770.12 178.14 772.25 161.73 799.22 161.73 797.2 178.14"/>
          <polygon class="cls-3" points="830.14 198.63 802.94 198.63 804.94 182.05 832.02 182.05 830.14 198.63"/>
          <polygon class="cls-3" points="864.87 198.63 837.64 198.63 839.48 182.05 866.59 182.05 864.87 198.63"/>
          <polygon class="cls-3" points="934.27 198.63 907.08 198.63 908.61 182.05 935.68 182.05 934.27 198.63"/>
          <polygon class="cls-3" points="968.99 198.63 941.77 198.63 943.15 182.05 970.25 182.05 968.99 198.63"/>
          <polygon class="cls-3" points="1003.7 198.63 976.47 198.63 977.7 182.05 1004.81 182.05 1003.7 198.63"/>
          <polygon class="cls-3" points="1038.42 198.63 1011.19 198.63 1012.26 182.05 1039.38 182.05 1038.42 198.63"/>
          <polygon class="cls-3" points="1073.12 198.63 1045.9 198.63 1046.82 182.05 1073.92 182.05 1073.12 198.63"/>
          <polygon class="cls-3" points="1109.37 198.63 1082.15 198.63 1082.91 182.05 1110.01 182.05 1109.37 198.63"/>
          <polygon class="cls-2" points="1458.02 198.63 1430.8 198.63 1430.01 182.05 1457.1 182.05 1458.02 198.63"/>
          <polygon class="cls-2" points="1492.73 198.63 1465.5 198.63 1464.56 182.05 1491.66 182.05 1492.73 198.63"/>
          <polygon class="cls-2" points="1527.43 198.63 1500.22 198.63 1499.11 182.05 1526.21 182.05 1527.43 198.63"/>
          <polygon class="cls-2" points="1562.15 198.63 1534.93 198.63 1533.67 182.05 1560.77 182.05 1562.15 198.63"/>
          <polygon class="cls-2" points="1598.42 198.63 1571.19 198.63 1569.77 182.05 1596.88 182.05 1598.42 198.63"/>
          <polygon class="cls-2" points="1633.11 198.63 1605.89 198.63 1604.32 182.05 1631.42 182.05 1633.11 198.63"/>
          <polygon class="cls-2" points="1667.82 198.63 1640.59 198.63 1638.86 182.05 1665.98 182.05 1667.82 198.63"/>
          <polygon class="cls-2" points="1702.55 198.63 1675.29 198.63 1673.4 182.05 1700.54 182.05 1702.55 198.63"/>
          <polygon class="cls-2" points="1737.25 198.63 1710.05 198.63 1708.02 182.05 1735.09 182.05 1737.25 198.63"/>
          <polygon class="cls-2" points="1771.94 198.63 1744.74 198.63 1742.55 182.05 1769.63 182.05 1771.94 198.63"/>
          <polygon class="cls-3" points="1842.9 198.63 1815.69 198.63 1813.18 182.05 1840.27 182.05 1842.9 198.63"/>
          <polygon class="cls-3" points="1877.62 198.63 1850.4 198.63 1847.74 182.05 1874.83 182.05 1877.62 198.63"/>
          <polygon class="cls-2" points="515.47 198.63 488.23 198.63 491.63 182.05 518.75 182.05 515.47 198.63"/>
          <polygon class="cls-2" points="655.85 198.63 628.61 198.63 631.39 182.05 658.5 182.05 655.85 198.63"/>
          <polygon class="cls-2" points="690.54 198.63 663.32 198.63 665.94 182.05 693.04 182.05 690.54 198.63"/>
          <polygon class="cls-2" points="725.26 198.63 698.05 198.63 700.51 182.05 727.6 182.05 725.26 198.63"/>
          <polygon class="cls-3" points="794.69 198.63 767.45 198.63 769.61 182.05 796.72 182.05 794.69 198.63"/>
          <polygon class="cls-3" points="827.79 219.36 800.44 219.36 802.47 202.58 829.69 202.58 827.79 219.36"/>
          <polygon class="cls-3" points="897.61 219.36 870.22 219.36 871.93 202.58 899.2 202.58 897.61 219.36"/>
          <polygon class="cls-3" points="932.5 219.36 905.16 219.36 906.71 202.58 933.93 202.58 932.5 219.36"/>
          <polygon class="cls-3" points="967.42 219.36 940.05 219.36 941.44 202.58 968.69 202.58 967.42 219.36"/>
          <polygon class="cls-3" points="1002.32 219.36 974.94 219.36 976.18 202.58 1003.44 202.58 1002.32 219.36"/>
          <polygon class="cls-3" points="1037.23 219.36 1009.85 219.36 1010.93 202.58 1038.2 202.58 1037.23 219.36"/>
          <polygon class="cls-3" points="1072.13 219.36 1044.75 219.36 1045.68 202.58 1072.93 202.58 1072.13 219.36"/>
          <polygon class="cls-3" points="1108.58 219.36 1081.2 219.36 1081.97 202.58 1109.22 202.58 1108.58 219.36"/>
          <polygon class="cls-2" points="1318 219.36 1290.62 219.36 1290.45 202.58 1317.71 202.58 1318 219.36"/>
          <polygon class="cls-2" points="1354.47 219.36 1327.07 219.36 1326.74 202.58 1354.01 202.58 1354.47 219.36"/>
          <polygon class="cls-2" points="1389.36 219.36 1361.97 219.36 1361.48 202.58 1388.74 202.58 1389.36 219.36"/>
          <polygon class="cls-2" points="1459.16 219.36 1431.8 219.36 1430.99 202.58 1458.24 202.58 1459.16 219.36"/>
          <polygon class="cls-2" points="1494.07 219.36 1466.69 219.36 1465.73 202.58 1492.99 202.58 1494.07 219.36"/>
          <polygon class="cls-2" points="1528.96 219.36 1501.59 219.36 1500.48 202.58 1527.72 202.58 1528.96 219.36"/>
          <polygon class="cls-2" points="1563.87 219.36 1536.5 219.36 1535.23 202.58 1562.47 202.58 1563.87 219.36"/>
          <polygon class="cls-2" points="1600.34 219.36 1572.96 219.36 1571.52 202.58 1598.78 202.58 1600.34 219.36"/>
          <polygon class="cls-2" points="1635.23 219.36 1607.86 219.36 1606.26 202.58 1633.52 202.58 1635.23 219.36"/>
          <polygon class="cls-2" points="1670.13 219.36 1642.75 219.36 1641 202.58 1668.26 202.58 1670.13 219.36"/>
          <polygon class="cls-2" points="1705.05 219.36 1677.64 219.36 1675.73 202.58 1703.02 202.58 1705.05 219.36"/>
          <polygon class="cls-2" points="1739.94 219.36 1712.6 219.36 1710.54 202.58 1737.76 202.58 1739.94 219.36"/>
          <polygon class="cls-2" points="1774.83 219.36 1747.48 219.36 1745.27 202.58 1772.49 202.58 1774.83 219.36"/>
          <polygon class="cls-3" points="1809.73 219.36 1782.37 219.36 1780 202.58 1807.24 202.58 1809.73 219.36"/>
          <polygon class="cls-3" points="1846.18 219.36 1818.82 219.36 1816.29 202.58 1843.52 202.58 1846.18 219.36"/>
          <polygon class="cls-3" points="1881.09 219.36 1853.73 219.36 1851.04 202.58 1878.28 202.58 1881.09 219.36"/>
          <polygon class="cls-3" points="1916 219.36 1888.63 219.36 1885.78 202.58 1913.03 202.58 1916 219.36"/>
          <polygon class="cls-3" points="1950.91 219.36 1923.54 219.36 1920.54 202.58 1947.78 202.58 1950.91 219.36"/>
          <polygon class="cls-3" points="1985.83 219.36 1958.44 219.36 1955.28 202.58 1982.55 202.58 1985.83 219.36"/>
          <polygon class="cls-3" points="2020.73 219.36 1993.33 219.36 1990.01 202.58 2017.29 202.58 2020.73 219.36"/>
          <polygon class="cls-2" points="476.44 219.36 449.08 219.36 452.68 202.58 479.91 202.58 476.44 219.36"/>
          <polygon class="cls-2" points="511.38 219.36 483.98 219.36 487.42 202.58 514.69 202.58 511.38 219.36"/>
          <polygon class="cls-2" points="546.28 219.36 518.87 219.36 522.16 202.58 549.44 202.58 546.28 219.36"/>
          <polygon class="cls-2" points="582.71 219.36 555.35 219.36 558.47 202.58 585.71 202.58 582.71 219.36"/>
          <polygon class="cls-2" points="617.62 219.36 590.26 219.36 593.22 202.58 620.46 202.58 617.62 219.36"/>
          <polygon class="cls-2" points="652.53 219.36 625.15 219.36 627.95 202.58 655.21 202.58 652.53 219.36"/>
          <polygon class="cls-2" points="687.42 219.36 660.04 219.36 662.69 202.58 689.95 202.58 687.42 219.36"/>
          <polygon class="cls-2" points="722.33 219.36 694.96 219.36 697.46 202.58 724.7 202.58 722.33 219.36"/>
          <polygon class="cls-3" points="757.21 219.36 729.86 219.36 732.2 202.58 759.43 202.58 757.21 219.36"/>
          <polygon class="cls-3" points="792.14 219.36 764.76 219.36 766.94 202.58 794.2 202.58 792.14 219.36"/>
          <polygon class="cls-3" points="825.42 240.29 797.92 240.29 799.96 223.35 827.34 223.35 825.42 240.29"/>
          <polygon class="cls-3" points="860.53 240.29 833 240.29 834.89 223.35 862.29 223.35 860.53 240.29"/>
          <polygon class="cls-3" points="895.63 240.29 868.09 240.29 869.82 223.35 897.23 223.35 895.63 240.29"/>
          <polygon class="cls-3" points="1000.92 240.29 973.39 240.29 974.64 223.35 1002.05 223.35 1000.92 240.29"/>
          <polygon class="cls-3" points="1036.03 240.29 1008.49 240.29 1009.59 223.35 1037.01 223.35 1036.03 240.29"/>
          <polygon class="cls-3" points="1071.12 240.29 1043.59 240.29 1044.53 223.35 1071.94 223.35 1071.12 240.29"/>
          <polygon class="cls-3" points="1107.77 240.29 1080.25 240.29 1081.02 223.35 1108.42 223.35 1107.77 240.29"/>
          <polygon class="cls-3" points="1142.87 240.29 1115.36 240.29 1115.97 223.35 1143.36 223.35 1142.87 240.29"/>
          <polygon class="cls-2" points="1283.28 240.29 1255.75 240.29 1255.74 223.35 1283.14 223.35 1283.28 240.29"/>
          <polygon class="cls-2" points="1318.37 240.29 1290.84 240.29 1290.67 223.35 1318.07 223.35 1318.37 240.29"/>
          <polygon class="cls-2" points="1355.04 240.29 1327.49 240.29 1327.15 223.35 1354.58 223.35 1355.04 240.29"/>
          <polygon class="cls-2" points="1390.12 240.29 1362.58 240.29 1362.09 223.35 1389.5 223.35 1390.12 240.29"/>
          <polygon class="cls-2" points="1425.23 240.29 1397.72 240.29 1397.06 223.35 1424.45 223.35 1425.23 240.29"/>
          <polygon class="cls-2" points="1460.32 240.29 1432.8 240.29 1431.99 223.35 1459.38 223.35 1460.32 240.29"/>
          <polygon class="cls-2" points="1495.42 240.29 1467.89 240.29 1466.92 223.35 1494.33 223.35 1495.42 240.29"/>
          <polygon class="cls-2" points="1530.51 240.29 1502.99 240.29 1501.86 223.35 1529.26 223.35 1530.51 240.29"/>
          <polygon class="cls-2" points="1565.61 240.29 1538.09 240.29 1536.81 223.35 1564.2 223.35 1565.61 240.29"/>
          <polygon class="cls-2" points="1602.29 240.29 1574.75 240.29 1573.3 223.35 1600.71 223.35 1602.29 240.29"/>
          <polygon class="cls-2" points="1637.37 240.29 1609.84 240.29 1608.24 223.35 1635.64 223.35 1637.37 240.29"/>
          <polygon class="cls-2" points="1672.47 240.29 1644.93 240.29 1643.16 223.35 1670.58 223.35 1672.47 240.29"/>
          <polygon class="cls-2" points="1707.58 240.29 1680.01 240.29 1678.09 223.35 1705.53 223.35 1707.58 240.29"/>
          <polygon class="cls-2" points="1742.67 240.29 1715.17 240.29 1713.09 223.35 1740.46 223.35 1742.67 240.29"/>
          <polygon class="cls-2" points="1777.75 240.29 1750.25 240.29 1748.01 223.35 1775.39 223.35 1777.75 240.29"/>
          <polygon class="cls-3" points="1812.84 240.29 1785.34 240.29 1782.94 223.35 1810.32 223.35 1812.84 240.29"/>
          <polygon class="cls-3" points="1849.5 240.29 1821.99 240.29 1819.43 223.35 1846.82 223.35 1849.5 240.29"/>
          <polygon class="cls-3" points="1884.6 240.29 1857.09 240.29 1854.37 223.35 1881.76 223.35 1884.6 240.29"/>
          <polygon class="cls-3" points="1919.71 240.29 1892.19 240.29 1889.31 223.35 1916.71 223.35 1919.71 240.29"/>
          <polygon class="cls-3" points="1954.81 240.29 1927.29 240.29 1924.26 223.35 1951.65 223.35 1954.81 240.29"/>
          <polygon class="cls-3" points="1989.93 240.29 1962.38 240.29 1959.19 223.35 1986.61 223.35 1989.93 240.29"/>
          <polygon class="cls-3" points="2025.02 240.29 1997.47 240.29 1994.12 223.35 2021.54 223.35 2025.02 240.29"/>
          <polygon class="cls-3" points="2060.1 240.29 2032.59 240.29 2029.08 223.35 2056.47 223.35 2060.1 240.29"/>
          <polygon class="cls-2" points="472.1 240.29 444.6 240.29 448.23 223.35 475.61 223.35 472.1 240.29"/>
          <polygon class="cls-2" points="507.24 240.29 479.69 240.29 483.16 223.35 510.59 223.35 507.24 240.29"/>
          <polygon class="cls-2" points="542.34 240.29 514.78 240.29 518.09 223.35 545.53 223.35 542.34 240.29"/>
          <polygon class="cls-2" points="578.97 240.29 551.46 240.29 554.61 223.35 582 223.35 578.97 240.29"/>
          <polygon class="cls-2" points="614.07 240.29 586.56 240.29 589.55 223.35 616.94 223.35 614.07 240.29"/>
          <polygon class="cls-2" points="649.18 240.29 621.64 240.29 624.48 223.35 651.89 223.35 649.18 240.29"/>
          <polygon class="cls-2" points="684.26 240.29 656.73 240.29 659.41 223.35 686.82 223.35 684.26 240.29"/>
          <polygon class="cls-2" points="719.37 240.29 691.85 240.29 694.37 223.35 721.76 223.35 719.37 240.29"/>
          <polygon class="cls-3" points="754.45 240.29 726.95 240.29 729.31 223.35 756.69 223.35 754.45 240.29"/>
          <polygon class="cls-3" points="789.57 240.29 762.03 240.29 764.24 223.35 791.65 223.35 789.57 240.29"/>
          <polygon class="cls-3" points="858.33 261.49 830.64 261.49 832.55 244.37 860.11 244.37 858.33 261.49"/>
          <polygon class="cls-3" points="893.62 261.49 865.93 261.49 867.67 244.37 895.24 244.37 893.62 261.49"/>
          <polygon class="cls-3" points="999.51 261.49 971.82 261.49 973.08 244.37 1000.65 244.37 999.51 261.49"/>
          <polygon class="cls-3" points="1177.55 261.49 1149.88 261.49 1150.34 244.37 1177.89 244.37 1177.55 261.49"/>
          <polygon class="cls-3" points="1248.14 261.49 1220.49 261.49 1220.63 244.37 1248.16 244.37 1248.14 261.49"/>
          <polygon class="cls-2" points="1283.45 261.49 1255.77 261.49 1255.76 244.37 1283.31 244.37 1283.45 261.49"/>
          <polygon class="cls-2" points="1355.61 261.49 1327.91 261.49 1327.57 244.37 1355.15 244.37 1355.61 261.49"/>
          <polygon class="cls-2" points="1390.9 261.49 1363.21 261.49 1362.7 244.37 1390.27 244.37 1390.9 261.49"/>
          <polygon class="cls-2" points="1426.2 261.49 1398.53 261.49 1397.87 244.37 1425.42 244.37 1426.2 261.49"/>
          <polygon class="cls-2" points="1461.49 261.49 1433.81 261.49 1432.99 244.37 1460.54 244.37 1461.49 261.49"/>
          <polygon class="cls-2" points="1496.78 261.49 1469.1 261.49 1468.12 244.37 1495.68 244.37 1496.78 261.49"/>
          <polygon class="cls-2" points="1532.07 261.49 1504.4 261.49 1503.26 244.37 1530.81 244.37 1532.07 261.49"/>
          <polygon class="cls-2" points="1567.37 261.49 1539.7 261.49 1538.4 244.37 1565.95 244.37 1567.37 261.49"/>
          <polygon class="cls-2" points="1604.25 261.49 1576.56 261.49 1575.1 244.37 1602.66 244.37 1604.25 261.49"/>
          <polygon class="cls-2" points="1639.54 261.49 1611.85 261.49 1610.23 244.37 1637.79 244.37 1639.54 261.49"/>
          <polygon class="cls-2" points="1674.83 261.49 1647.14 261.49 1645.35 244.37 1672.92 244.37 1674.83 261.49"/>
          <polygon class="cls-2" points="1710.14 261.49 1682.42 261.49 1680.47 244.37 1708.07 244.37 1710.14 261.49"/>
          <polygon class="cls-2" points="1745.43 261.49 1717.77 261.49 1715.67 244.37 1743.2 244.37 1745.43 261.49"/>
          <polygon class="cls-2" points="1780.71 261.49 1753.05 261.49 1750.78 244.37 1778.32 244.37 1780.71 261.49"/>
          <polygon class="cls-3" points="1816 261.49 1788.33 261.49 1785.91 244.37 1813.45 244.37 1816 261.49"/>
          <polygon class="cls-3" points="1852.86 261.49 1825.19 261.49 1822.6 244.37 1850.14 244.37 1852.86 261.49"/>
          <polygon class="cls-3" points="1888.16 261.49 1860.49 261.49 1857.74 244.37 1885.29 244.37 1888.16 261.49"/>
          <polygon class="cls-3" points="1923.46 261.49 1895.79 261.49 1892.88 244.37 1920.43 244.37 1923.46 261.49"/>
          <polygon class="cls-3" points="1958.76 261.49 1931.09 261.49 1928.02 244.37 1955.57 244.37 1958.76 261.49"/>
          <polygon class="cls-3" points="1994.08 261.49 1966.37 261.49 1963.15 244.37 1990.72 244.37 1994.08 261.49"/>
          <polygon class="cls-2" points="503.05 261.49 475.34 261.49 478.85 244.37 506.43 244.37 503.05 261.49"/>
          <polygon class="cls-2" points="538.34 261.49 510.63 261.49 513.98 244.37 541.57 244.37 538.34 261.49"/>
          <polygon class="cls-2" points="575.19 261.49 547.52 261.49 550.7 244.37 578.25 244.37 575.19 261.49"/>
          <polygon class="cls-2" points="610.48 261.49 582.81 261.49 585.84 244.37 613.38 244.37 610.48 261.49"/>
          <polygon class="cls-2" points="645.79 261.49 618.1 261.49 620.96 244.37 648.53 244.37 645.79 261.49"/>
          <polygon class="cls-2" points="681.07 261.49 653.38 261.49 656.09 244.37 683.65 244.37 681.07 261.49"/>
          <polygon class="cls-2" points="716.37 261.49 688.7 261.49 691.24 244.37 718.79 244.37 716.37 261.49"/>
          <polygon class="cls-3" points="751.65 261.49 723.99 261.49 726.38 244.37 753.91 244.37 751.65 261.49"/>
          <polygon class="cls-3" points="786.97 261.49 759.27 261.49 761.5 244.37 789.07 244.37 786.97 261.49"/>
          <polygon class="cls-3" points="820.59 282.94 792.78 282.94 794.87 265.58 822.56 265.58 820.59 282.94"/>
          <polygon class="cls-3" points="856.1 282.94 828.26 282.94 830.19 265.58 857.91 265.58 856.1 282.94"/>
          <polygon class="cls-3" points="891.59 282.94 863.74 282.94 865.51 265.58 893.23 265.58 891.59 282.94"/>
          <polygon class="cls-3" points="927.07 282.94 899.27 282.94 900.87 265.58 928.55 265.58 927.07 282.94"/>
          <polygon class="cls-3" points="1177.13 282.94 1149.3 282.94 1149.77 265.58 1177.47 265.58 1177.13 282.94"/>
          <polygon class="cls-3" points="1212.64 282.94 1184.79 282.94 1185.1 265.58 1212.82 265.58 1212.64 282.94"/>
          <polygon class="cls-2" points="1283.62 282.94 1255.79 282.94 1255.78 265.58 1283.48 265.58 1283.62 282.94"/>
          <polygon class="cls-2" points="1319.12 282.94 1291.27 282.94 1291.1 265.58 1318.81 265.58 1319.12 282.94"/>
          <polygon class="cls-2" points="1356.2 282.94 1328.34 282.94 1327.99 265.58 1355.73 265.58 1356.2 282.94"/>
          <polygon class="cls-2" points="1391.68 282.94 1363.83 282.94 1363.32 265.58 1391.05 265.58 1391.68 282.94"/>
          <polygon class="cls-2" points="1427.19 282.94 1399.36 282.94 1398.69 265.58 1426.39 265.58 1427.19 282.94"/>
          <polygon class="cls-2" points="1462.67 282.94 1434.84 282.94 1434.01 265.58 1461.71 265.58 1462.67 282.94"/>
          <polygon class="cls-2" points="1498.17 282.94 1470.33 282.94 1469.33 265.58 1497.05 265.58 1498.17 282.94"/>
          <polygon class="cls-2" points="1533.65 282.94 1505.82 282.94 1504.67 265.58 1532.37 265.58 1533.65 282.94"/>
          <polygon class="cls-2" points="1569.15 282.94 1541.32 282.94 1540.01 265.58 1567.71 265.58 1569.15 282.94"/>
          <polygon class="cls-2" points="1606.25 282.94 1578.4 282.94 1576.91 265.58 1604.63 265.58 1606.25 282.94"/>
          <polygon class="cls-2" points="1641.73 282.94 1613.89 282.94 1612.24 265.58 1639.95 265.58 1641.73 282.94"/>
          <polygon class="cls-2" points="1677.22 282.94 1649.37 282.94 1647.56 265.58 1675.29 265.58 1677.22 282.94"/>
          <polygon class="cls-2" points="1712.73 282.94 1684.85 282.94 1682.88 265.58 1710.63 265.58 1712.73 282.94"/>
          <polygon class="cls-2" points="1748.22 282.94 1720.4 282.94 1718.27 265.58 1745.96 265.58 1748.22 282.94"/>
          <polygon class="cls-2" points="1783.7 282.94 1755.88 282.94 1753.59 265.58 1781.28 265.58 1783.7 282.94"/>
          <polygon class="cls-3" points="1819.19 282.94 1791.37 282.94 1788.91 265.58 1816.61 265.58 1819.19 282.94"/>
          <polygon class="cls-3" points="1856.26 282.94 1828.43 282.94 1825.81 265.58 1853.5 265.58 1856.26 282.94"/>
          <polygon class="cls-3" points="1927.26 282.94 1899.43 282.94 1896.48 265.58 1924.19 265.58 1927.26 282.94"/>
          <polygon class="cls-2" points="463.27 282.94 435.45 282.94 439.18 265.58 466.87 265.58 463.27 282.94"/>
          <polygon class="cls-2" points="498.81 282.94 470.95 282.94 474.51 265.58 502.24 265.58 498.81 282.94"/>
          <polygon class="cls-2" points="606.85 282.94 579.02 282.94 582.09 265.58 609.79 265.58 606.85 282.94"/>
          <polygon class="cls-2" points="642.35 282.94 614.51 282.94 617.41 265.58 645.13 265.58 642.35 282.94"/>
          <polygon class="cls-2" points="677.84 282.94 649.99 282.94 652.74 265.58 680.45 265.58 677.84 282.94"/>
          <polygon class="cls-2" points="713.33 282.94 685.51 282.94 688.09 265.58 715.79 265.58 713.33 282.94"/>
          <polygon class="cls-3" points="748.81 282.94 721 282.94 723.42 265.58 751.11 265.58 748.81 282.94"/>
          <polygon class="cls-3" points="784.34 282.94 756.48 282.94 758.74 265.58 786.47 265.58 784.34 282.94"/>
          <polygon class="cls-3" points="818.14 304.59 790.17 304.59 792.28 287.07 820.12 287.07 818.14 304.59"/>
          <polygon class="cls-3" points="853.85 304.59 825.85 304.59 827.8 287.07 855.67 287.07 853.85 304.59"/>
          <polygon class="cls-3" points="889.54 304.59 861.53 304.59 863.32 287.07 891.2 287.07 889.54 304.59"/>
          <polygon class="cls-3" points="925.22 304.59 897.26 304.59 898.88 287.07 926.72 287.07 925.22 304.59"/>
          <polygon class="cls-3" points="960.94 304.59 932.94 304.59 934.4 287.07 962.27 287.07 960.94 304.59"/>
          <polygon class="cls-3" points="1212.41 304.59 1184.4 304.59 1184.71 287.07 1212.59 287.07 1212.41 304.59"/>
          <polygon class="cls-3" points="1248.1 304.59 1220.12 304.59 1220.27 287.07 1248.12 287.07 1248.1 304.59"/>
          <polygon class="cls-2" points="1283.8 304.59 1255.81 304.59 1255.8 287.07 1283.66 287.07 1283.8 304.59"/>
          <polygon class="cls-2" points="1319.5 304.59 1291.49 304.59 1291.32 287.07 1319.19 287.07 1319.5 304.59"/>
          <polygon class="cls-2" points="1356.79 304.59 1328.77 304.59 1328.42 287.07 1356.31 287.07 1356.79 304.59"/>
          <polygon class="cls-2" points="1392.47 304.59 1364.47 304.59 1363.95 287.07 1391.83 287.07 1392.47 304.59"/>
          <polygon class="cls-2" points="1428.18 304.59 1400.19 304.59 1399.52 287.07 1427.38 287.07 1428.18 304.59"/>
          <polygon class="cls-2" points="1463.86 304.59 1435.88 304.59 1435.04 287.07 1462.9 287.07 1463.86 304.59"/>
          <polygon class="cls-2" points="1499.56 304.59 1471.57 304.59 1470.56 287.07 1498.43 287.07 1499.56 304.59"/>
          <polygon class="cls-2" points="1535.25 304.59 1507.26 304.59 1506.1 287.07 1533.96 287.07 1535.25 304.59"/>
          <polygon class="cls-2" points="1570.95 304.59 1542.97 304.59 1541.64 287.07 1569.5 287.07 1570.95 304.59"/>
          <polygon class="cls-2" points="1608.26 304.59 1580.25 304.59 1578.75 287.07 1606.63 287.07 1608.26 304.59"/>
          <polygon class="cls-2" points="1643.94 304.59 1615.94 304.59 1614.28 287.07 1642.15 287.07 1643.94 304.59"/>
          <polygon class="cls-2" points="1679.63 304.59 1651.62 304.59 1649.8 287.07 1677.68 287.07 1679.63 304.59"/>
          <polygon class="cls-2" points="1715.35 304.59 1687.31 304.59 1685.32 287.07 1713.23 287.07 1715.35 304.59"/>
          <polygon class="cls-2" points="1751.03 304.59 1723.06 304.59 1720.91 287.07 1748.75 287.07 1751.03 304.59"/>
          <polygon class="cls-2" points="1786.71 304.59 1758.74 304.59 1756.43 287.07 1784.27 287.07 1786.71 304.59"/>
          <polygon class="cls-3" points="1822.4 304.59 1794.43 304.59 1791.95 287.07 1819.8 287.07 1822.4 304.59"/>
          <polygon class="cls-3" points="1859.68 304.59 1831.7 304.59 1829.06 287.07 1856.91 287.07 1859.68 304.59"/>
          <polygon class="cls-2" points="458.79 304.59 430.82 304.59 434.57 287.07 462.42 287.07 458.79 304.59"/>
          <polygon class="cls-2" points="603.18 304.59 575.2 304.59 578.3 287.07 606.15 287.07 603.18 304.59"/>
          <polygon class="cls-2" points="638.89 304.59 610.88 304.59 613.81 287.07 641.69 287.07 638.89 304.59"/>
          <polygon class="cls-2" points="674.57 304.59 646.57 304.59 649.34 287.07 677.21 287.07 674.57 304.59"/>
          <polygon class="cls-2" points="710.27 304.59 682.29 304.59 684.89 287.07 712.75 287.07 710.27 304.59"/>
          <polygon class="cls-3" points="745.96 304.59 717.98 304.59 720.43 287.07 748.27 287.07 745.96 304.59"/>
          <polygon class="cls-3" points="781.68 304.59 753.67 304.59 755.95 287.07 783.83 287.07 781.68 304.59"/>
          <polygon class="cls-3" points="815.65 326.53 787.52 326.53 789.66 308.81 817.66 308.81 815.65 326.53"/>
          <polygon class="cls-3" points="851.57 326.53 823.41 326.53 825.38 308.81 853.41 308.81 851.57 326.53"/>
          <polygon class="cls-3" points="887.46 326.53 859.3 326.53 861.1 308.81 889.14 308.81 887.46 326.53"/>
          <polygon class="cls-2" points="1393.27 326.53 1365.11 326.53 1364.59 308.81 1392.63 308.81 1393.27 326.53"/>
          <polygon class="cls-2" points="1429.19 326.53 1401.04 326.53 1400.36 308.81 1428.37 308.81 1429.19 326.53"/>
          <polygon class="cls-2" points="1500.98 326.53 1472.82 326.53 1471.81 308.81 1499.84 308.81 1500.98 326.53"/>
          <polygon class="cls-2" points="1536.87 326.53 1508.72 326.53 1507.54 308.81 1535.56 308.81 1536.87 326.53"/>
          <polygon class="cls-2" points="1572.78 326.53 1544.63 326.53 1543.29 308.81 1571.3 308.81 1572.78 326.53"/>
          <polygon class="cls-2" points="1610.29 326.53 1582.12 326.53 1580.61 308.81 1608.65 308.81 1610.29 326.53"/>
          <polygon class="cls-2" points="1646.18 326.53 1618.02 326.53 1616.34 308.81 1644.37 308.81 1646.18 326.53"/>
          <polygon class="cls-2" points="1682.08 326.53 1653.91 326.53 1652.06 308.81 1680.11 308.81 1682.08 326.53"/>
          <polygon class="cls-2" points="1717.99 326.53 1689.8 326.53 1687.79 308.81 1715.86 308.81 1717.99 326.53"/>
          <polygon class="cls-2" points="1753.89 326.53 1725.76 326.53 1723.58 308.81 1751.58 308.81 1753.89 326.53"/>
          <polygon class="cls-2" points="1789.77 326.53 1761.64 326.53 1759.3 308.81 1787.3 308.81 1789.77 326.53"/>
          <polygon class="cls-3" points="1825.67 326.53 1797.53 326.53 1795.02 308.81 1823.03 308.81 1825.67 326.53"/>
          <polygon class="cls-3" points="1863.16 326.53 1835.02 326.53 1832.34 308.81 1860.35 308.81 1863.16 326.53"/>
          <polygon class="cls-2" points="635.38 326.53 607.21 326.53 610.18 308.81 638.21 308.81 635.38 326.53"/>
          <polygon class="cls-2" points="671.27 326.53 643.11 326.53 645.91 308.81 673.94 308.81 671.27 326.53"/>
          <polygon class="cls-2" points="707.17 326.53 679.03 326.53 681.66 308.81 709.68 308.81 707.17 326.53"/>
          <polygon class="cls-3" points="743.06 326.53 714.92 326.53 717.4 308.81 745.4 308.81 743.06 326.53"/>
          <polygon class="cls-3" points="778.98 326.53 750.81 326.53 753.12 308.81 781.16 308.81 778.98 326.53"/>
          <polygon class="cls-3" points="813.14 348.72 784.85 348.72 787.01 330.76 815.17 330.76 813.14 348.72"/>
          <polygon class="cls-3" points="849.26 348.72 820.94 348.72 822.94 330.76 851.13 330.76 849.26 348.72"/>
          <polygon class="cls-3" points="885.36 348.72 857.04 348.72 858.87 330.76 887.06 330.76 885.36 348.72"/>
          <polygon class="cls-3" points="1211.95 348.72 1183.62 348.72 1183.94 330.76 1212.14 330.76 1211.95 348.72"/>
          <polygon class="cls-3" points="1248.05 348.72 1219.75 348.72 1219.9 330.76 1248.07 330.76 1248.05 348.72"/>
          <polygon class="cls-2" points="1357.99 348.72 1329.65 348.72 1329.29 330.76 1357.5 330.76 1357.99 348.72"/>
          <polygon class="cls-2" points="1394.09 348.72 1365.76 348.72 1365.23 330.76 1393.43 330.76 1394.09 348.72"/>
          <polygon class="cls-2" points="1430.2 348.72 1401.9 348.72 1401.2 330.76 1429.38 330.76 1430.2 348.72"/>
          <polygon class="cls-2" points="1466.3 348.72 1437.99 348.72 1437.13 330.76 1465.31 330.76 1466.3 348.72"/>
          <polygon class="cls-2" points="1502.41 348.72 1474.09 348.72 1473.06 330.76 1501.25 330.76 1502.41 348.72"/>
          <polygon class="cls-2" points="1538.51 348.72 1510.2 348.72 1509 330.76 1537.18 330.76 1538.51 348.72"/>
          <polygon class="cls-2" points="1574.62 348.72 1546.31 348.72 1544.95 330.76 1573.13 330.76 1574.62 348.72"/>
          <polygon class="cls-2" points="1612.35 348.72 1584.02 348.72 1582.49 330.76 1610.69 330.76 1612.35 348.72"/>
          <polygon class="cls-2" points="1648.45 348.72 1620.13 348.72 1618.42 330.76 1646.61 330.76 1648.45 348.72"/>
          <polygon class="cls-2" points="1684.55 348.72 1656.22 348.72 1654.35 330.76 1682.55 330.76 1684.55 348.72"/>
          <polygon class="cls-2" points="1720.68 348.72 1692.32 348.72 1690.28 330.76 1718.51 330.76 1720.68 348.72"/>
          <polygon class="cls-2" points="1756.77 348.72 1728.48 348.72 1726.28 330.76 1754.44 330.76 1756.77 348.72"/>
          <polygon class="cls-2" points="1792.87 348.72 1764.57 348.72 1762.2 330.76 1790.36 330.76 1792.87 348.72"/>
          <polygon class="cls-3" points="1828.97 348.72 1800.67 348.72 1798.13 330.76 1826.3 330.76 1828.97 348.72"/>
          <polygon class="cls-3" points="1866.68 348.72 1838.37 348.72 1835.66 330.76 1863.83 330.76 1866.68 348.72"/>
          <polygon class="cls-2" points="667.92 348.72 639.6 348.72 642.44 330.76 670.63 330.76 667.92 348.72"/>
          <polygon class="cls-2" points="704.03 348.72 675.73 348.72 678.4 330.76 706.57 330.76 704.03 348.72"/>
          <polygon class="cls-3" points="740.13 348.72 711.83 348.72 714.34 330.76 742.5 330.76 740.13 348.72"/>
          <polygon class="cls-3" points="776.26 348.72 747.93 348.72 750.26 330.76 778.47 330.76 776.26 348.72"/>
          <polygon class="cls-3" points="810.6 371.12 782.14 371.12 784.33 352.96 812.66 352.96 810.6 371.12"/>
          <polygon class="cls-3" points="1175.39 371.12 1146.91 371.12 1147.4 352.96 1175.75 352.96 1175.39 371.12"/>
          <polygon class="cls-3" points="1211.72 371.12 1183.22 371.12 1183.55 352.96 1211.91 352.96 1211.72 371.12"/>
          <polygon class="cls-3" points="1248.02 371.12 1219.57 371.12 1219.72 352.96 1248.04 352.96 1248.02 371.12"/>
          <polygon class="cls-2" points="1284.35 371.12 1255.87 371.12 1255.85 352.96 1284.2 352.96 1284.35 371.12"/>
          <polygon class="cls-2" points="1394.91 371.12 1366.41 371.12 1365.88 352.96 1394.24 352.96 1394.91 371.12"/>
          <polygon class="cls-2" points="1431.23 371.12 1402.76 371.12 1402.06 352.96 1430.4 352.96 1431.23 371.12"/>
          <polygon class="cls-2" points="1467.54 371.12 1439.06 371.12 1438.19 352.96 1466.53 352.96 1467.54 371.12"/>
          <polygon class="cls-2" points="1503.85 371.12 1475.37 371.12 1474.33 352.96 1502.68 352.96 1503.85 371.12"/>
          <polygon class="cls-2" points="1540.16 371.12 1511.69 371.12 1510.48 352.96 1538.82 352.96 1540.16 371.12"/>
          <polygon class="cls-2" points="1576.48 371.12 1548.01 371.12 1546.63 352.96 1574.97 352.96 1576.48 371.12"/>
          <polygon class="cls-2" points="1614.43 371.12 1585.94 371.12 1584.39 352.96 1612.75 352.96 1614.43 371.12"/>
          <polygon class="cls-2" points="1650.73 371.12 1622.25 371.12 1620.53 352.96 1648.88 352.96 1650.73 371.12"/>
          <polygon class="cls-2" points="1687.05 371.12 1658.56 371.12 1656.66 352.96 1685.03 352.96 1687.05 371.12"/>
          <polygon class="cls-2" points="1723.38 371.12 1694.86 371.12 1692.8 352.96 1721.19 352.96 1723.38 371.12"/>
          <polygon class="cls-2" points="1759.69 371.12 1731.23 371.12 1729 352.96 1757.32 352.96 1759.69 371.12"/>
          <polygon class="cls-2" points="1795.99 371.12 1767.53 371.12 1765.13 352.96 1793.46 352.96 1795.99 371.12"/>
          <polygon class="cls-3" points="1832.3 371.12 1803.84 371.12 1801.27 352.96 1829.6 352.96 1832.3 371.12"/>
          <polygon class="cls-3" points="1870.23 371.12 1841.76 371.12 1839.01 352.96 1867.35 352.96 1870.23 371.12"/>
          <polygon class="cls-2" points="664.55 371.12 636.06 371.12 638.93 352.96 667.28 352.96 664.55 371.12"/>
          <polygon class="cls-2" points="700.86 371.12 672.39 371.12 675.1 352.96 703.43 352.96 700.86 371.12"/>
          <polygon class="cls-3" points="737.17 371.12 708.71 371.12 711.24 352.96 739.56 352.96 737.17 371.12"/>
          <polygon class="cls-3" points="773.51 371.12 745.01 371.12 747.38 352.96 775.74 352.96 773.51 371.12"/>
          <polygon class="cls-3" points="844.57 393.83 815.92 393.83 817.96 375.45 846.48 375.45 844.57 393.83"/>
          <polygon class="cls-3" points="1174.94 393.83 1146.3 393.83 1146.8 375.45 1175.3 375.45 1174.94 393.83"/>
          <polygon class="cls-3" points="1211.48 393.83 1182.82 393.83 1183.15 375.45 1211.67 375.45 1211.48 393.83"/>
          <polygon class="cls-3" points="1248 393.83 1219.37 393.83 1219.53 375.45 1248.02 375.45 1248 393.83"/>
          <polygon class="cls-2" points="1284.53 393.83 1255.89 393.83 1255.87 375.45 1284.38 375.45 1284.53 393.83"/>
          <polygon class="cls-2" points="1321.06 393.83 1292.41 393.83 1292.22 375.45 1320.74 375.45 1321.06 393.83"/>
          <polygon class="cls-2" points="1359.22 393.83 1330.55 393.83 1330.18 375.45 1358.72 375.45 1359.22 393.83"/>
          <polygon class="cls-2" points="1395.73 393.83 1367.08 393.83 1366.54 375.45 1395.06 375.45 1395.73 393.83"/>
          <polygon class="cls-2" points="1432.28 393.83 1403.64 393.83 1402.93 375.45 1431.43 375.45 1432.28 393.83"/>
          <polygon class="cls-2" points="1468.79 393.83 1440.15 393.83 1439.27 375.45 1467.78 375.45 1468.79 393.83"/>
          <polygon class="cls-2" points="1505.32 393.83 1476.67 393.83 1475.62 375.45 1504.13 375.45 1505.32 393.83"/>
          <polygon class="cls-2" points="1541.84 393.83 1513.2 393.83 1511.98 375.45 1540.48 375.45 1541.84 393.83"/>
          <polygon class="cls-2" points="1578.37 393.83 1549.73 393.83 1548.34 375.45 1576.84 375.45 1578.37 393.83"/>
          <polygon class="cls-2" points="1616.54 393.83 1587.88 393.83 1586.31 375.45 1614.84 375.45 1616.54 393.83"/>
          <polygon class="cls-2" points="1653.05 393.83 1624.41 393.83 1622.66 375.45 1651.18 375.45 1653.05 393.83"/>
          <polygon class="cls-2" points="1689.58 393.83 1660.92 393.83 1659 375.45 1687.53 375.45 1689.58 393.83"/>
          <polygon class="cls-2" points="1726.12 393.83 1697.43 393.83 1695.35 375.45 1723.91 375.45 1726.12 393.83"/>
          <polygon class="cls-2" points="1762.64 393.83 1734.02 393.83 1731.76 375.45 1760.25 375.45 1762.64 393.83"/>
          <polygon class="cls-3" points="1835.68 393.83 1807.05 393.83 1804.45 375.45 1832.94 375.45 1835.68 393.83"/>
          <polygon class="cls-2" points="661.12 393.83 632.47 393.83 635.37 375.45 663.89 375.45 661.12 393.83"/>
          <polygon class="cls-2" points="697.65 393.83 669.02 393.83 671.75 375.45 700.25 375.45 697.65 393.83"/>
          <polygon class="cls-3" points="734.17 393.83 705.54 393.83 708.11 375.45 736.59 375.45 734.17 393.83"/>
          <polygon class="cls-3" points="805.43 416.8 776.64 416.8 778.88 398.21 807.53 398.21 805.43 416.8"/>
          <polygon class="cls-3" points="842.18 416.8 813.36 416.8 815.43 398.21 844.12 398.21 842.18 416.8"/>
          <polygon class="cls-3" points="1137.74 416.8 1108.94 416.8 1109.62 398.21 1138.28 398.21 1137.74 416.8"/>
          <polygon class="cls-3" points="1174.49 416.8 1145.68 416.8 1146.18 398.21 1174.85 398.21 1174.49 416.8"/>
          <polygon class="cls-3" points="1211.24 416.8 1182.41 416.8 1182.74 398.21 1211.44 398.21 1211.24 416.8"/>
          <polygon class="cls-3" points="1247.97 416.8 1219.18 416.8 1219.34 398.21 1247.99 398.21 1247.97 416.8"/>
          <polygon class="cls-2" points="1284.72 416.8 1255.91 416.8 1255.9 398.21 1284.57 398.21 1284.72 416.8"/>
          <polygon class="cls-2" points="1321.46 416.8 1292.64 416.8 1292.45 398.21 1321.13 398.21 1321.46 416.8"/>
          <polygon class="cls-2" points="1359.85 416.8 1331.01 416.8 1330.64 398.21 1359.34 398.21 1359.85 416.8"/>
          <polygon class="cls-2" points="1396.57 416.8 1367.75 416.8 1367.2 398.21 1395.89 398.21 1396.57 416.8"/>
          <polygon class="cls-2" points="1433.33 416.8 1404.52 416.8 1403.81 398.21 1432.48 398.21 1433.33 416.8"/>
          <polygon class="cls-2" points="1470.06 416.8 1441.25 416.8 1440.36 398.21 1469.03 398.21 1470.06 416.8"/>
          <polygon class="cls-2" points="1543.53 416.8 1514.73 416.8 1513.49 398.21 1542.16 398.21 1543.53 416.8"/>
          <polygon class="cls-2" points="1580.28 416.8 1551.47 416.8 1550.06 398.21 1578.73 398.21 1580.28 416.8"/>
          <polygon class="cls-2" points="1618.67 416.8 1589.85 416.8 1588.26 398.21 1616.95 398.21 1618.67 416.8"/>
          <polygon class="cls-2" points="1655.4 416.8 1626.58 416.8 1624.82 398.21 1653.5 398.21 1655.4 416.8"/>
          <polygon class="cls-2" points="1692.14 416.8 1663.31 416.8 1661.37 398.21 1690.07 398.21 1692.14 416.8"/>
          <polygon class="cls-2" points="694.41 416.8 665.6 416.8 668.37 398.21 697.03 398.21 694.41 416.8"/>
          <polygon class="cls-3" points="731.13 416.8 702.34 416.8 704.93 398.21 733.59 398.21 731.13 416.8"/>
          <polygon class="cls-3" points="767.9 416.8 739.07 416.8 741.49 398.21 770.18 398.21 767.9 416.8"/>
          <polygon class="cls-3" points="802.8 440.01 773.84 440.01 776.1 421.23 804.93 421.23 802.8 440.01"/>
          <polygon class="cls-3" points="839.77 440.01 810.78 440.01 812.87 421.23 841.72 421.23 839.77 440.01"/>
          <polygon class="cls-3" points="876.72 440.01 847.73 440.01 849.64 421.23 878.5 421.23 876.72 440.01"/>
          <polygon class="cls-3" points="913.67 440.01 884.72 440.01 886.46 421.23 915.27 421.23 913.67 440.01"/>
          <polygon class="cls-3" points="1137.07 440.01 1108.1 440.01 1108.78 421.23 1137.62 421.23 1137.07 440.01"/>
          <polygon class="cls-3" points="1174.03 440.01 1145.05 440.01 1145.56 421.23 1174.4 421.23 1174.03 440.01"/>
          <polygon class="cls-3" points="1211 440.01 1182 440.01 1182.33 421.23 1211.19 421.23 1211 440.01"/>
          <polygon class="cls-3" points="1247.95 440.01 1218.99 440.01 1219.14 421.23 1247.97 421.23 1247.95 440.01"/>
          <polygon class="cls-2" points="1284.91 440.01 1255.93 440.01 1255.92 421.23 1284.76 421.23 1284.91 440.01"/>
          <polygon class="cls-2" points="1321.87 440.01 1292.88 440.01 1292.69 421.23 1321.54 421.23 1321.87 440.01"/>
          <polygon class="cls-2" points="1360.48 440.01 1331.47 440.01 1331.1 421.23 1359.97 421.23 1360.48 440.01"/>
          <polygon class="cls-2" points="1397.42 440.01 1368.43 440.01 1367.88 421.23 1396.74 421.23 1397.42 440.01"/>
          <polygon class="cls-2" points="1434.39 440.01 1405.42 440.01 1404.69 421.23 1433.53 421.23 1434.39 440.01"/>
          <polygon class="cls-2" points="1471.34 440.01 1442.36 440.01 1441.46 421.23 1470.3 421.23 1471.34 440.01"/>
          <polygon class="cls-2" points="1545.25 440.01 1516.27 440.01 1515.02 421.23 1543.86 421.23 1545.25 440.01"/>
          <polygon class="cls-2" points="1582.21 440.01 1553.23 440.01 1551.81 421.23 1580.65 421.23 1582.21 440.01"/>
          <polygon class="cls-2" points="1657.77 440.01 1628.79 440.01 1627 421.23 1655.85 421.23 1657.77 440.01"/>
          <polygon class="cls-2" points="1694.73 440.01 1665.73 440.01 1663.77 421.23 1692.64 421.23 1694.73 440.01"/>
          <polygon class="cls-2" points="1805.59 440.01 1776.63 440.01 1774.15 421.23 1802.97 421.23 1805.59 440.01"/>
          <polygon class="cls-3" points="728.07 440.01 699.11 440.01 701.72 421.23 730.55 421.23 728.07 440.01"/>
          <polygon class="cls-3" points="765.05 440.01 736.05 440.01 738.49 421.23 767.36 421.23 765.05 440.01"/>
          <polygon class="cls-3" points="800.14 463.52 771 463.52 773.29 444.53 802.29 444.53 800.14 463.52"/>
          <polygon class="cls-3" points="837.33 463.52 808.17 463.52 810.28 444.53 839.3 444.53 837.33 463.52"/>
          <polygon class="cls-3" points="874.5 463.52 845.33 463.52 847.27 444.53 876.3 444.53 874.5 463.52"/>
          <polygon class="cls-3" points="911.66 463.52 882.54 463.52 884.3 444.53 913.28 444.53 911.66 463.52"/>
          <polygon class="cls-3" points="948.86 463.52 919.7 463.52 921.28 444.53 950.3 444.53 948.86 463.52"/>
          <polygon class="cls-3" points="1136.39 463.52 1107.24 463.52 1107.93 444.53 1136.94 444.53 1136.39 463.52"/>
          <polygon class="cls-3" points="1173.56 463.52 1144.41 463.52 1144.93 444.53 1173.94 444.53 1173.56 463.52"/>
          <polygon class="cls-3" points="1210.75 463.52 1181.59 463.52 1181.92 444.53 1210.95 444.53 1210.75 463.52"/>
          <polygon class="cls-3" points="1247.92 463.52 1218.79 463.52 1218.95 444.53 1247.94 444.53 1247.92 463.52"/>
          <polygon class="cls-2" points="1285.11 463.52 1255.96 463.52 1255.94 444.53 1284.95 444.53 1285.11 463.52"/>
          <polygon class="cls-2" points="1322.28 463.52 1293.12 463.52 1292.92 444.53 1321.95 444.53 1322.28 463.52"/>
          <polygon class="cls-2" points="1361.12 463.52 1331.94 463.52 1331.56 444.53 1360.6 444.53 1361.12 463.52"/>
          <polygon class="cls-2" points="1398.28 463.52 1369.11 463.52 1368.56 444.53 1397.59 444.53 1398.28 463.52"/>
          <polygon class="cls-2" points="1584.16 463.52 1555.02 463.52 1553.57 444.53 1582.58 444.53 1584.16 463.52"/>
          <polygon class="cls-2" points="1660.17 463.52 1631.02 463.52 1629.21 444.53 1658.23 444.53 1660.17 463.52"/>
          <polygon class="cls-2" points="1697.35 463.52 1668.18 463.52 1666.2 444.53 1695.23 444.53 1697.35 463.52"/>
          <polygon class="cls-2" points="1808.87 463.52 1779.73 463.52 1777.23 444.53 1806.22 444.53 1808.87 463.52"/>
          <polygon class="cls-3" points="834.86 487.28 805.52 487.28 807.66 468.06 836.86 468.06 834.86 487.28"/>
          <polygon class="cls-3" points="872.25 487.28 842.91 487.28 844.87 468.06 874.07 468.06 872.25 487.28"/>
          <polygon class="cls-3" points="909.63 487.28 880.34 487.28 882.12 468.06 911.27 468.06 909.63 487.28"/>
          <polygon class="cls-3" points="947.05 487.28 917.72 487.28 919.32 468.06 948.51 468.06 947.05 487.28"/>
          <polygon class="cls-3" points="984.44 487.28 955.11 487.28 956.53 468.06 985.73 468.06 984.44 487.28"/>
          <polygon class="cls-3" points="1021.86 487.28 992.51 487.28 993.75 468.06 1022.96 468.06 1021.86 487.28"/>
          <polygon class="cls-3" points="1173.09 487.28 1143.77 487.28 1144.29 468.06 1173.48 468.06 1173.09 487.28"/>
          <polygon class="cls-3" points="1210.51 487.28 1181.16 487.28 1181.51 468.06 1210.71 468.06 1210.51 487.28"/>
          <polygon class="cls-3" points="1247.89 487.28 1218.59 487.28 1218.75 468.06 1247.91 468.06 1247.89 487.28"/>
          <polygon class="cls-2" points="1285.3 487.28 1255.98 487.28 1255.96 468.06 1285.14 468.06 1285.3 487.28"/>
          <polygon class="cls-2" points="1322.7 487.28 1293.36 487.28 1293.16 468.06 1322.36 468.06 1322.7 487.28"/>
          <polygon class="cls-2" points="1361.77 487.28 1332.41 487.28 1332.03 468.06 1361.24 468.06 1361.77 487.28"/>
          <polygon class="cls-2" points="1399.15 487.28 1369.81 487.28 1369.25 468.06 1398.45 468.06 1399.15 487.28"/>
          <polygon class="cls-2" points="1436.56 487.28 1407.24 487.28 1406.5 468.06 1435.68 468.06 1436.56 487.28"/>
          <polygon class="cls-2" points="1700 487.28 1670.65 487.28 1668.65 468.06 1697.85 468.06 1700 487.28"/>
          <polygon class="cls-2" points="1737.41 487.28 1708.04 487.28 1705.86 468.06 1735.09 468.06 1737.41 487.28"/>
          <polygon class="cls-3" points="1849.57 487.28 1820.26 487.28 1817.54 468.06 1846.72 468.06 1849.57 487.28"/>
          <polygon class="cls-3" points="1888.63 487.28 1859.31 487.28 1856.41 468.06 1885.58 468.06 1888.63 487.28"/>
          <polygon class="cls-3" points="832.35 511.37 802.84 511.37 805.01 491.91 834.38 491.91 832.35 511.37"/>
          <polygon class="cls-3" points="869.97 511.37 840.45 511.37 842.44 491.91 871.81 491.91 869.97 511.37"/>
          <polygon class="cls-3" points="907.58 511.37 878.11 511.37 879.91 491.91 909.24 491.91 907.58 511.37"/>
          <polygon class="cls-3" points="945.22 511.37 915.72 511.37 917.34 491.91 946.7 491.91 945.22 511.37"/>
          <polygon class="cls-3" points="982.84 511.37 953.32 511.37 954.76 491.91 984.14 491.91 982.84 511.37"/>
          <polygon class="cls-3" points="1020.48 511.37 990.95 511.37 992.21 491.91 1021.59 491.91 1020.48 511.37"/>
          <polygon class="cls-2" points="1285.5 511.37 1256 511.37 1255.98 491.91 1285.34 491.91 1285.5 511.37"/>
          <polygon class="cls-2" points="1323.12 511.37 1293.61 511.37 1293.41 491.91 1322.78 491.91 1323.12 511.37"/>
          <polygon class="cls-2" points="1362.42 511.37 1332.89 511.37 1332.51 491.91 1361.89 491.91 1362.42 511.37"/>
          <polygon class="cls-2" points="1400.03 511.37 1370.51 511.37 1369.95 491.91 1399.32 491.91 1400.03 511.37"/>
          <polygon class="cls-2" points="1740.32 511.37 1710.77 511.37 1708.56 491.91 1737.97 491.91 1740.32 511.37"/>
          <polygon class="cls-2" points="1777.93 511.37 1748.45 511.37 1746.06 491.91 1775.4 491.91 1777.93 511.37"/>
          <polygon class="cls-3" points="1892.45 511.37 1862.95 511.37 1860.01 491.91 1889.36 491.91 1892.45 511.37"/>
          <polygon class="cls-3" points="1930.07 511.37 1900.58 511.37 1897.46 491.91 1926.81 491.91 1930.07 511.37"/>
          <polygon class="cls-3" points="829.82 535.74 800.13 535.74 802.33 516.01 831.87 516.01 829.82 535.74"/>
          <polygon class="cls-3" points="867.66 535.74 837.97 535.74 839.98 516.01 869.53 516.01 867.66 535.74"/>
          <polygon class="cls-3" points="905.5 535.74 875.85 535.74 877.68 516.01 907.18 516.01 905.5 535.74"/>
          <polygon class="cls-3" points="943.37 535.74 913.68 535.74 915.33 516.01 944.87 516.01 943.37 535.74"/>
          <polygon class="cls-3" points="981.21 535.74 951.52 535.74 952.98 516.01 982.53 516.01 981.21 535.74"/>
          <polygon class="cls-3" points="1019.08 535.74 989.38 535.74 990.65 516.01 1020.21 516.01 1019.08 535.74"/>
          <polygon class="cls-3" points="1056.91 535.74 1027.23 535.74 1028.32 516.01 1057.86 516.01 1056.91 535.74"/>
          <polygon class="cls-2" points="1285.7 535.74 1256.02 535.74 1256 516.01 1285.54 516.01 1285.7 535.74"/>
          <polygon class="cls-2" points="1323.54 535.74 1293.85 535.74 1293.65 516.01 1323.2 516.01 1323.54 535.74"/>
          <polygon class="cls-2" points="1363.09 535.74 1333.38 535.74 1332.99 516.01 1362.55 516.01 1363.09 535.74"/>
          <polygon class="cls-2" points="1400.92 535.74 1371.23 535.74 1370.65 516.01 1400.2 516.01 1400.92 535.74"/>
          <polygon class="cls-3" points="1896.31 535.74 1866.64 535.74 1863.65 516.01 1893.18 516.01 1896.31 535.74"/>
          <polygon class="cls-3" points="1934.16 535.74 1904.49 535.74 1901.32 516.01 1930.85 516.01 1934.16 535.74"/>
          <polygon class="cls-3" points="865.33 560.4 835.45 560.4 837.49 540.45 867.22 540.45 865.33 560.4"/>
          <polygon class="cls-3" points="903.39 560.4 873.56 560.4 875.41 540.45 905.1 540.45 903.39 560.4"/>
          <polygon class="cls-3" points="941.49 560.4 911.63 560.4 913.29 540.45 943.01 540.45 941.49 560.4"/>
          <polygon class="cls-3" points="979.57 560.4 949.69 560.4 951.17 540.45 980.9 540.45 979.57 560.4"/>
          <polygon class="cls-3" points="1017.66 560.4 987.78 560.4 989.07 540.45 1018.81 540.45 1017.66 560.4"/>
          <polygon class="cls-2" points="1285.9 560.4 1256.04 560.4 1256.02 540.45 1285.74 540.45 1285.9 560.4"/>
          <polygon class="cls-2" points="1323.98 560.4 1294.11 560.4 1293.9 540.45 1323.63 540.45 1323.98 560.4"/>
          <polygon class="cls-2" points="1363.76 560.4 1333.87 560.4 1333.47 540.45 1363.22 540.45 1363.76 560.4"/>
          <polygon class="cls-2" points="1401.82 560.4 1371.95 560.4 1371.36 540.45 1401.09 540.45 1401.82 560.4"/>
          <polygon class="cls-2" points="1439.91 560.4 1410.06 560.4 1409.29 540.45 1439 540.45 1439.91 560.4"/>
          <polygon class="cls-2" points="1822.38 560.4 1792.53 560.4 1789.9 540.45 1819.59 540.45 1822.38 560.4"/>
          <polygon class="cls-3" points="1860.45 560.4 1830.6 560.4 1827.78 540.45 1857.48 540.45 1860.45 560.4"/>
          <polygon class="cls-3" points="1900.21 560.4 1870.37 560.4 1867.35 540.45 1897.05 540.45 1900.21 560.4"/>
          <polygon class="cls-3" points="862.97 585.34 832.91 585.34 834.97 565.14 864.88 565.14 862.97 585.34"/>
          <polygon class="cls-3" points="901.26 585.34 871.25 585.34 873.13 565.14 902.99 565.14 901.26 585.34"/>
          <polygon class="cls-3" points="939.59 585.34 909.55 585.34 911.23 565.14 941.13 565.14 939.59 585.34"/>
          <polygon class="cls-3" points="977.9 585.34 947.85 585.34 949.34 565.14 979.25 565.14 977.9 585.34"/>
          <polygon class="cls-2" points="1286.11 585.34 1256.07 585.34 1256.05 565.14 1285.94 565.14 1286.11 585.34"/>
          <polygon class="cls-2" points="1324.41 585.34 1294.36 585.34 1294.15 565.14 1324.06 565.14 1324.41 585.34"/>
          <polygon class="cls-2" points="1364.44 585.34 1334.37 585.34 1333.96 565.14 1363.89 565.14 1364.44 585.34"/>
          <polygon class="cls-2" points="1441.06 585.34 1411.02 585.34 1410.24 565.14 1440.13 565.14 1441.06 585.34"/>
          <polygon class="cls-2" points="1749.25 585.34 1719.17 585.34 1716.87 565.14 1746.82 565.14 1749.25 585.34"/>
          <polygon class="cls-2" points="1787.55 585.34 1757.54 585.34 1755.06 565.14 1784.93 565.14 1787.55 585.34"/>
          <polygon class="cls-2" points="1825.85 585.34 1795.83 585.34 1793.16 565.14 1823.04 565.14 1825.85 585.34"/>
          <polygon class="cls-3" points="1864.16 585.34 1834.13 585.34 1831.27 565.14 1861.15 565.14 1864.16 585.34"/>
          <polygon class="cls-3" points="1904.17 585.34 1874.14 585.34 1871.08 565.14 1900.96 565.14 1904.17 585.34"/>
          <polygon class="cls-3" points="1942.48 585.34 1912.45 585.34 1909.21 565.14 1939.1 565.14 1942.48 585.34"/>
          <polygon class="cls-3" points="860.58 610.58 830.34 610.58 832.42 590.16 862.51 590.16 860.58 610.58"/>
          <polygon class="cls-3" points="899.11 610.58 868.92 610.58 870.81 590.16 900.85 590.16 899.11 610.58"/>
          <polygon class="cls-3" points="937.68 610.58 907.45 610.58 909.15 590.16 939.23 590.16 937.68 610.58"/>
          <polygon class="cls-2" points="1286.31 610.58 1256.09 610.58 1256.07 590.16 1286.14 590.16 1286.31 610.58"/>
          <polygon class="cls-2" points="1324.85 610.58 1294.62 610.58 1294.41 590.16 1324.5 590.16 1324.85 610.58"/>
          <polygon class="cls-2" points="1790.84 610.58 1760.64 610.58 1758.13 590.16 1788.18 590.16 1790.84 610.58"/>
          <polygon class="cls-2" points="1829.37 610.58 1799.16 610.58 1796.46 590.16 1826.52 590.16 1829.37 610.58"/>
          <polygon class="cls-3" points="1867.91 610.58 1837.7 610.58 1834.81 590.16 1864.87 590.16 1867.91 610.58"/>
          <polygon class="cls-3" points="1908.16 610.58 1877.95 610.58 1874.86 590.16 1904.93 590.16 1908.16 610.58"/>
          <polygon class="cls-3" points="1946.72 610.58 1916.5 610.58 1913.22 590.16 1943.29 590.16 1946.72 610.58"/>
          <polygon class="cls-3" points="858.16 636.17 827.73 636.17 829.84 615.49 860.12 615.49 858.16 636.17"/>
          <polygon class="cls-3" points="896.93 636.17 866.55 636.17 868.46 615.49 898.69 615.49 896.93 636.17"/>
          <polygon class="cls-2" points="1794.17 636.17 1763.78 636.17 1761.24 615.49 1791.48 615.49 1794.17 636.17"/>
          <polygon class="cls-2" points="1832.94 636.17 1802.54 636.17 1799.81 615.49 1830.05 615.49 1832.94 636.17"/>
          <polygon class="cls-3" points="1871.71 636.17 1841.32 636.17 1838.39 615.49 1868.64 615.49 1871.71 636.17"/>
          <polygon class="cls-3" points="1912.22 636.17 1881.81 636.17 1878.69 615.49 1908.94 615.49 1912.22 636.17"/>
          <polygon class="cls-3" points="1951.01 636.17 1920.6 636.17 1917.29 615.49 1947.54 615.49 1951.01 636.17"/>
          <polygon class="cls-3" points="2067.39 636.17 2036.96 636.17 2033.06 615.49 2063.35 615.49 2067.39 636.17"/>
          <polygon class="cls-3" points="2106.17 636.17 2075.73 636.17 2071.64 615.49 2101.93 615.49 2106.17 636.17"/>
          <polygon class="cls-3" points="855.71 662.07 825.09 662.07 827.23 641.1 857.69 641.1 855.71 662.07"/>
          <polygon class="cls-3" points="894.72 662.07 864.15 662.07 866.09 641.1 896.51 641.1 894.72 662.07"/>
          <polygon class="cls-3" points="1916.32 662.07 1885.73 662.07 1882.56 641.1 1913 641.1 1916.32 662.07"/>
          <polygon class="cls-3" points="2072.46 662.07 2041.84 662.07 2037.88 641.1 2068.36 641.1 2072.46 662.07"/>
          <polygon class="cls-3" points="853.23 688.26 822.42 688.26 824.58 667.05 855.24 667.05 853.23 688.26"/>
          <polygon class="cls-3" points="2038.3 688.26 2007.51 688.26 2003.71 667.05 2034.34 667.05 2038.3 688.26"/>
          <polygon class="cls-3" points="850.71 714.83 819.71 714.83 821.9 693.33 852.75 693.33 850.71 714.83"/>
        </g>
      </g>
    </g>
  </g>
</svg>