<svg width="2333" height="548" viewBox="0 0 2333 548" fill="none" xmlns="http://www.w3.org/2000/svg">
<path opacity="0.05" d="M0 2.17624C155.474 86.8534 233.211 86.128 233.211 0C388.685 86.128 466.422 88.0534 466.422 5.77618C621.896 88.0534 699.633 86.9025 699.633 2.32359C855.107 86.9025 932.844 88.0235 932.844 5.68648C1088.32 88.0235 1166.05 87.3793 1166.05 3.75382C1321.53 87.3793 1399.27 88.0183 1399.27 5.67079C1554.74 88.0183 1632.48 87.7911 1632.48 4.98928C1787.95 87.7911 1865.69 86.5356 1865.69 1.22283C2021.16 86.5356 2098.9 87.6264 2098.9 4.49518C2254.37 87.6264 2332.11 87.2632 2332.11 3.40553V469.291H0V0.98737V2.17624Z" fill="url(#paint0_linear_2_3)"/>
<path opacity="0.37" d="M0 28.4125C155.474 113.09 233.211 112.364 233.211 26.2362C388.685 112.364 466.422 114.29 466.422 32.0124C621.896 114.29 699.633 113.139 699.633 28.5598C855.107 113.139 932.844 114.26 932.844 31.9227C1088.32 114.26 1166.05 113.616 1166.05 29.9901C1321.53 113.616 1399.27 114.254 1399.27 31.907C1554.74 114.254 1632.48 114.027 1632.48 31.2255C1787.95 114.027 1865.69 112.772 1865.69 27.4591C2021.16 112.772 2098.9 113.863 2098.9 30.7314C2254.37 113.863 2332.11 113.499 2332.11 29.6418V495.528H0V27.2236V28.4125Z" fill="url(#paint1_linear_2_3)"/>
<path opacity="0.68" d="M0 54.6487C155.474 139.326 233.211 138.6 233.211 52.4725C388.685 138.6 466.422 140.526 466.422 58.2487C621.896 140.526 699.633 139.375 699.633 54.7961C855.107 139.375 932.844 140.496 932.844 58.159C1088.32 140.496 1166.05 139.852 1166.05 56.2263C1321.53 139.852 1399.27 140.491 1399.27 58.1433C1554.74 140.491 1632.48 140.264 1632.48 57.4618C1787.95 140.264 1865.69 139.008 1865.69 53.6953C2021.16 139.008 2098.9 140.099 2098.9 56.9677C2254.37 140.099 2332.11 139.736 2332.11 55.878V521.764H0V53.4598V54.6487Z" fill="url(#paint2_linear_2_3)"/>
<path d="M0 80.885C155.474 165.562 233.211 164.837 233.211 78.7087C388.685 164.837 466.422 166.762 466.422 84.4849C621.896 166.762 699.633 165.611 699.633 81.0323C855.107 165.611 932.844 166.732 932.844 84.3952C1088.32 166.732 1166.05 166.088 1166.05 82.4625C1321.53 166.088 1399.27 166.727 1399.27 84.3795C1554.74 166.727 1632.48 166.5 1632.48 83.698C1787.95 166.5 1865.69 165.244 1865.69 79.9315C2021.16 165.244 2098.9 166.335 2098.9 83.2039C2254.37 166.335 2332.11 165.972 2332.11 82.1142V548H0V79.6961V80.885Z" fill="url(#paint3_linear_2_3)"/>
<defs>
<linearGradient id="paint0_linear_2_3" x1="116605" y1="0" x2="116605" y2="46929.1" gradientUnits="userSpaceOnUse">
<stop stop-color="#0D9488"/>
<stop offset="1" stop-color="#0F766E"/>
</linearGradient>
<linearGradient id="paint1_linear_2_3" x1="116605" y1="26.2362" x2="116605" y2="46955.4" gradientUnits="userSpaceOnUse">
<stop stop-color="#0D9488"/>
<stop offset="1" stop-color="#0F766E"/>
</linearGradient>
<linearGradient id="paint2_linear_2_3" x1="116605" y1="52.4725" x2="116605" y2="46981.6" gradientUnits="userSpaceOnUse">
<stop stop-color="#0D9488"/>
<stop offset="1" stop-color="#0F766E"/>
</linearGradient>
<linearGradient id="paint3_linear_2_3" x1="116605" y1="78.7087" x2="116605" y2="47007.8" gradientUnits="userSpaceOnUse">
<stop stop-color="#0D9488"/>
<stop offset="1" stop-color="#0F766E"/>
</linearGradient>
</defs>
</svg>
